<?xml version="1.0" standalone="no"?>
<!DOCTYPE svg PUBLIC "-//W3C//DTD SVG 20010904//EN"
 "http://www.w3.org/TR/2001/REC-SVG-20010904/DTD/svg10.dtd">
<svg version="1.0" xmlns="http://www.w3.org/2000/svg"
 width="1024.000000pt" height="1024.000000pt" viewBox="0 0 1024.000000 1024.000000"
 preserveAspectRatio="xMidYMid meet">
<metadata>
Created by potrace 1.14, written by Peter Selinger 2001-2017
</metadata>
<g transform="translate(0.000000,1024.000000) scale(0.100000,-0.100000)"
fill="#000000" stroke="none">
<path d="M1590 8942 c-125 -39 -209 -111 -268 -231 l-37 -75 -3 -373 c-1 -234
-6 -383 -13 -400 -20 -53 -270 -720 -395 -1053 -68 -184 -128 -344 -133 -355
-5 -11 -14 -36 -21 -55 -7 -19 -16 -44 -21 -55 -69 -158 -72 -230 -18 -385 12
-36 37 -90 56 -120 38 -60 146 -170 190 -193 86 -44 110 -56 124 -60 14 -4 15
-214 15 -2156 l-1 -2151 4051 0 c3233 0 4053 3 4056 12 2 7 3 974 2 2150 l0
2136 60 27 c197 88 342 293 361 511 6 65 4 75 -40 189 -25 66 -47 125 -49 130
-2 6 -6 17 -9 25 -3 8 -101 269 -217 580 -116 311 -215 574 -220 585 -5 11
-25 63 -44 115 -19 52 -39 107 -45 123 -7 17 -12 169 -13 400 l-3 372 -37 75
c-54 108 -126 177 -238 226 -44 19 -102 19 -3540 21 -3253 1 -3499 0 -3550
-15z"/>
</g>
</svg>
